<!--?xml version="1.0" encoding="UTF-8" standalone="no"?-->


<svg xmlns="http://www.w3.org/2000/svg" width="11in" height="8.5in" viewBox="0 0 1100 850" style="">
  <path id="Selection" fill="none" stroke="black" stroke-width="1" d="M 972.00,62.00
           C 972.00,62.00 934.58,114.00 934.58,114.00
             934.58,114.00 918.84,138.00 918.84,138.00
             918.84,138.00 918.84,152.00 918.84,152.00
             918.84,152.00 918.84,238.00 918.84,238.00
             918.84,238.00 919.83,250.00 919.83,250.00
             919.83,250.00 919.83,266.00 919.83,266.00
             919.83,266.00 919.83,273.00 919.83,273.00
             919.83,273.00 906.80,296.00 906.80,296.00
             906.80,296.00 875.40,349.00 875.40,349.00
             875.40,349.00 808.99,461.00 808.99,461.00
             808.99,461.00 774.00,521.00 774.00,521.00
             774.00,521.00 972.00,521.00 972.00,521.00
             972.00,521.00 972.00,329.00 972.00,329.00
             972.00,329.00 973.00,314.00 973.00,314.00
             973.00,314.00 973.00,196.00 973.00,196.00
             973.00,196.00 973.00,103.00 973.00,103.00
             973.00,103.00 973.00,76.00 973.00,76.00
             973.00,76.00 972.00,62.00 972.00,62.00 Z
           M 208.00,110.00
           C 208.00,110.00 208.00,521.00 208.00,521.00
             208.00,521.00 226.27,501.00 226.27,501.00
             226.27,501.00 257.75,464.00 257.75,464.00
             257.75,464.00 272.49,445.00 272.49,445.00
             272.49,445.00 273.00,438.00 273.00,438.00
             273.00,438.00 273.00,305.00 273.00,305.00
             273.00,305.00 272.00,289.00 272.00,289.00
             272.00,289.00 272.00,275.00 272.00,275.00
             272.00,275.00 346.00,275.00 346.00,275.00
             357.40,274.98 357.41,270.67 364.21,262.00
             364.21,262.00 394.00,222.00 394.00,222.00
             394.00,222.00 313.00,222.00 313.00,222.00
             313.00,222.00 272.00,221.00 272.00,221.00
             272.00,221.00 273.04,200.00 273.04,200.00
             273.04,200.00 273.04,188.00 273.04,188.00
             273.04,188.00 274.00,177.00 274.00,177.00
             274.00,177.00 418.00,177.00 418.00,177.00
             418.00,177.00 424.83,176.40 424.83,176.40
             424.83,176.40 440.09,161.00 440.09,161.00
             440.09,161.00 484.00,112.00 484.00,112.00
             484.00,112.00 416.00,112.00 416.00,112.00
             416.00,112.00 401.00,111.00 401.00,111.00
             401.00,111.00 271.00,111.00 271.00,111.00
             271.00,111.00 254.00,110.00 254.00,110.00
             254.00,110.00 208.00,110.00 208.00,110.00 Z
           M 497.00,121.00
           C 497.00,121.00 480.13,141.00 480.13,141.00
             480.13,141.00 457.00,168.00 457.00,168.00
             457.00,168.00 441.74,187.00 441.74,187.00
             441.74,187.00 441.00,195.00 441.00,195.00
             441.00,195.00 441.00,515.00 441.00,515.00
             446.03,510.49 450.93,502.61 455.13,497.00
             455.13,497.00 483.63,458.00 483.63,458.00
             486.28,454.41 496.42,441.15 497.44,438.00
             498.11,435.94 498.00,433.18 498.00,431.00
             498.00,431.00 498.00,229.00 498.00,229.00
             498.00,229.00 498.00,154.00 498.00,154.00
             498.00,147.44 498.89,125.76 497.00,121.00 Z
           M 729.00,153.00
           C 729.00,153.00 692.80,212.00 692.80,212.00
             690.03,216.55 680.61,230.93 679.17,235.00
             678.91,237.14 679.00,239.78 679.17,242.00
             679.17,242.00 679.17,324.00 679.17,324.00
             679.17,324.00 678.00,339.00 678.00,339.00
             678.00,339.00 678.00,434.00 678.00,434.00
             678.00,434.00 677.00,451.00 677.00,451.00
             677.00,451.00 677.00,515.00 677.00,515.00
             676.98,525.98 673.58,528.68 668.28,538.00
             668.28,538.00 653.58,564.00 653.58,564.00
             653.58,564.00 593.70,670.00 593.70,670.00
             593.70,670.00 573.70,706.00 573.70,706.00
             572.87,708.54 573.00,711.36 573.00,714.00
             573.00,714.00 573.00,821.00 573.00,821.00
             573.00,821.00 585.40,801.00 585.40,801.00
             585.40,801.00 611.20,757.00 611.20,757.00
             611.20,757.00 698.01,609.00 698.01,609.00
             698.01,609.00 796.01,442.00 796.01,442.00
             796.01,442.00 848.28,353.00 848.28,353.00
             848.28,353.00 886.42,288.00 886.42,288.00
             886.42,288.00 900.83,263.00 900.83,263.00
             900.83,263.00 900.83,256.00 900.83,256.00
             900.83,256.00 900.83,156.00 900.83,156.00
             900.83,156.00 879.80,191.00 879.80,191.00
             879.80,191.00 834.40,268.00 834.40,268.00
             834.40,268.00 769.58,378.00 769.58,378.00
             769.58,378.00 737.00,434.00 737.00,434.00
             735.28,427.95 736.01,418.53 736.00,412.00
             736.00,412.00 735.00,395.00 735.00,395.00
             735.00,395.00 735.00,362.00 735.00,362.00
             735.00,362.00 734.00,346.00 734.00,346.00
             734.00,346.00 734.00,313.00 734.00,313.00
             734.00,313.00 733.00,296.00 733.00,296.00
             733.00,296.00 733.00,263.00 733.00,263.00
             733.00,263.00 732.00,248.00 732.00,248.00
             732.00,248.00 732.00,214.00 732.00,214.00
             732.00,214.00 731.00,198.00 731.00,198.00
             731.00,198.00 731.00,184.00 731.00,184.00
             731.00,176.21 732.26,159.39 729.00,153.00 Z
           M 658.00,250.00
           C 658.00,250.00 614.15,310.00 614.15,310.00
             614.15,310.00 528.12,428.00 528.12,428.00
             528.12,428.00 487.13,484.00 487.13,484.00
             487.13,484.00 461.00,521.00 461.00,521.00
             461.00,521.00 656.00,521.00 656.00,521.00
             656.00,521.00 656.00,504.00 656.00,504.00
             656.00,504.00 657.00,491.00 657.00,491.00
             657.00,491.00 657.00,409.00 657.00,409.00
             657.00,409.00 658.00,394.00 658.00,394.00
             658.00,394.00 658.00,310.00 658.00,310.00
             658.00,310.00 659.00,295.00 659.00,295.00
             659.00,295.00 659.00,269.00 659.00,269.00
             659.00,269.00 658.00,250.00 658.00,250.00 Z
           M 923.00,378.00
           C 923.00,378.00 923.00,424.00 923.00,424.00
             923.00,424.00 922.00,441.00 922.00,441.00
             922.00,441.00 922.00,471.00 922.00,471.00
             922.00,471.00 866.00,471.00 866.00,471.00
             866.00,471.00 896.00,421.00 896.00,421.00
             896.00,421.00 923.00,378.00 923.00,378.00 Z
           M 613.00,389.00
           C 613.00,389.00 612.00,407.00 612.00,407.00
             612.00,407.00 612.00,434.00 612.00,434.00
             612.00,434.00 611.00,450.00 611.00,450.00
             611.00,450.00 611.00,471.00 611.00,471.00
             611.00,471.00 552.00,471.00 552.00,471.00
             552.00,471.00 569.13,446.00 569.13,446.00
             569.13,446.00 611.00,389.00 611.00,389.00
             611.00,389.00 613.00,389.00 613.00,389.00 Z" class="LGrRcYOt_0"></path>
<style data-made-with="vivus-instant">.LGrRcYOt_0{stroke-dasharray:6880 6882;stroke-dashoffset:6881;animation:LGrRcYOt_draw 2000ms linear 0ms forwards;}@keyframes LGrRcYOt_draw{100%{stroke-dashoffset:0;}}@keyframes LGrRcYOt_fade{0%{stroke-opacity:1;}93.54838709677419%{stroke-opacity:1;}100%{stroke-opacity:0;}}</style></svg>
